<svg width="960" height="540" viewBox="0 0 960 540" fill="none" xmlns="http://www.w3.org/2000/svg">
  <rect width="960" height="540" fill="#d85d47"/>
  <rect x="76" y="62" width="808" height="416" rx="30" fill="#fffaf3"/>
  <circle cx="286" cy="206" r="72" fill="#176d70"/>
  <circle cx="480" cy="178" r="72" fill="#b98727"/>
  <circle cx="674" cy="206" r="72" fill="#1d2424"/>
  <path d="M236 332c26-42 74-64 124-64s98 22 124 64" stroke="#176d70" stroke-width="28" stroke-linecap="round"/>
  <path d="M430 308c20-34 58-52 98-52s78 18 98 52" stroke="#b98727" stroke-width="28" stroke-linecap="round"/>
  <path d="M600 332c26-42 74-64 124-64s98 22 124 64" stroke="#1d2424" stroke-width="28" stroke-linecap="round"/>
  <rect x="382" y="352" width="196" height="68" rx="18" fill="#e8f0ed"/>
  <path d="M424 386h112" stroke="#d85d47" stroke-width="16" stroke-linecap="round"/>
  <path d="M480 112v132M414 178h132" stroke="#fffaf3" stroke-width="14" stroke-linecap="round"/>
  <path d="M286 154v104M234 206h104" stroke="#fffaf3" stroke-width="12" stroke-linecap="round"/>
  <path d="M674 154v104M622 206h104" stroke="#fffaf3" stroke-width="12" stroke-linecap="round"/>
</svg>
